<svg width="10" height="16" viewBox="0 0 10 16" fill="none" xmlns="http://www.w3.org/2000/svg">
<path fill-rule="evenodd" clip-rule="evenodd" d="M2.20369 15.7985C2.20369 15.91 2.32477 16 2.47477 16H6.3393C6.48931 16 6.61039 15.91 6.61039 15.7985V7.937H9.41208C9.55334 7.937 9.67039 7.857 9.6825 7.752L9.95157 5.384C9.95473 5.35623 9.95011 5.32827 9.938 5.3019C9.92588 5.27552 9.90654 5.2513 9.88119 5.23076C9.85583 5.21023 9.82503 5.19383 9.79071 5.18259C9.7564 5.17136 9.71932 5.16554 9.68182 5.1655H6.61039V3.485C6.61039 3.091 7.03955 2.7715 7.56962 2.7715H9.72891C9.87892 2.7715 10 2.6815 10 2.57V0.2015C10 0.148059 9.97144 0.0968066 9.9206 0.059018C9.86976 0.0212294 9.80081 0 9.72891 0L6.08099 0C5.05284 0 4.06681 0.303586 3.3398 0.843972C2.61279 1.38436 2.20436 2.11728 2.20436 2.8815V5.1655H0.271088C0.199308 5.1655 0.130457 5.18666 0.0796375 5.22434C0.0288179 5.26202 0.000178116 5.31315 0 5.3665V7.7355C0 7.847 0.121082 7.937 0.271088 7.937H2.20369V15.7985Z" fill="white"/>
</svg>
