<svg width="16" height="16" viewBox="0 0 16 16" fill="none" xmlns="http://www.w3.org/2000/svg">
<path d="M14.4905 11.1805C14.4905 11.6152 14.4049 12.0456 14.2385 12.4472C14.0722 12.8488 13.8284 13.2137 13.521 13.521C13.2137 13.8284 12.8488 14.0722 12.4472 14.2385C12.0456 14.4049 11.6152 14.4905 11.1805 14.4905H4.8195C3.94163 14.4905 3.09972 14.1418 2.47898 13.521C1.85823 12.9003 1.5095 12.0584 1.5095 11.1805V4.819C1.5095 3.94113 1.85823 3.09922 2.47898 2.47848C3.09972 1.85773 3.94163 1.509 4.8195 1.509H11.1805C12.0584 1.509 12.9003 1.85773 13.521 2.47848C14.1418 3.09922 14.4905 3.94113 14.4905 4.819V11.1805ZM16 4.819C16 2.1575 13.842 0 11.18 0H4.82C2.1575 0 0 2.1575 0 4.819V11.1805C0 13.842 2.158 16 4.82 16H11.18C12.4583 16 13.6843 15.4922 14.5883 14.5883C15.4922 13.6843 16 12.4583 16 11.18V4.819ZM8.027 10.634C7.35598 10.6332 6.71267 10.3663 6.23819 9.89181C5.76371 9.41733 5.49679 8.77402 5.496 8.103C5.49679 7.43198 5.76371 6.78867 6.23819 6.31419C6.71267 5.83971 7.35598 5.57279 8.027 5.572C8.69806 5.57266 9.34144 5.83953 9.81596 6.31404C10.2905 6.78855 10.5573 7.43194 10.558 8.103C10.5573 8.77406 10.2905 9.41745 9.81596 9.89196C9.34144 10.3665 8.69806 10.6333 8.027 10.634ZM8.027 4.152C5.8485 4.152 4.076 5.9245 4.076 8.103C4.076 10.282 5.8485 12.054 8.027 12.054C10.206 12.054 11.9785 10.282 11.9785 8.103C11.9785 5.9245 10.206 4.152 8.027 4.152ZM12.209 2.9455C12.0855 2.9455 11.9631 2.96983 11.849 3.01711C11.7349 3.06439 11.6311 3.13368 11.5438 3.22104C11.4564 3.3084 11.3871 3.4121 11.3399 3.52624C11.2926 3.64038 11.2682 3.76271 11.2682 3.88625C11.2682 4.00979 11.2926 4.13212 11.3399 4.24626C11.3871 4.3604 11.4564 4.4641 11.5438 4.55146C11.6311 4.63882 11.7349 4.70811 11.849 4.75539C11.9631 4.80267 12.0855 4.827 12.209 4.827C12.4585 4.827 12.6978 4.72789 12.8742 4.55146C13.0506 4.37504 13.1497 4.13575 13.1497 3.88625C13.1497 3.63675 13.0506 3.39746 12.8742 3.22104C12.6978 3.04461 12.4585 2.9455 12.209 2.9455Z" fill="white"/>
</svg>
