<svg width="245" height="270" viewBox="0 0 245 270" fill="none" xmlns="http://www.w3.org/2000/svg">
<path d="M172 104.79V144.38C172 146.469 171.21 148.472 169.803 149.949C168.397 151.426 166.489 152.256 164.5 152.256H79.5C77.5109 152.256 75.6032 151.426 74.1967 149.949C72.7902 148.472 72 146.469 72 144.38V104.79C71.9996 101.15 73.2007 97.6212 75.3988 94.8057C77.597 91.9902 80.6563 90.0615 84.0563 89.348C95.0188 87.0444 109.5 84.0026 109.5 84.0026V60.3765H134.5V84.0026L148.609 86.9657L159.941 89.3447C163.341 90.0586 166.401 91.9877 168.6 94.8037C170.799 97.6198 172 101.149 172 104.79Z" fill="white"/>
<path d="M172 104.79V144.38C172 146.469 171.21 148.472 169.803 149.949C168.397 151.426 166.489 152.256 164.5 152.256H79.7C99.2594 143.839 133.312 126.7 148.609 86.9657L159.941 89.3447C163.341 90.0586 166.401 91.9877 168.6 94.8037C170.799 97.6198 172 101.149 172 104.79V104.79Z" fill="white"/>
<path d="M144.5 105.004H149.5V152.256H144.5V105.004Z" fill="white"/>
<path d="M92 105.004H97V152.256H92V105.004Z" fill="white"/>
<path d="M147 36.7505H144.5V52.5012H147C148.989 52.5012 150.897 51.6715 152.303 50.1946C153.71 48.7176 154.5 46.7145 154.5 44.6258C154.5 42.5372 153.71 40.534 152.303 39.0571C150.897 37.5802 148.989 36.7505 147 36.7505Z" fill="#FEB784"/>
<path d="M97.125 36.7505H97C95.0109 36.7505 93.1032 37.5802 91.6967 39.0571C90.2902 40.534 89.5 42.5372 89.5 44.6258C89.5 46.7145 90.2902 48.7176 91.6967 50.1946C93.1032 51.6715 95.0109 52.5012 97 52.5012H99.5V36.7505H97.125Z" fill="#FEB784"/>
<path d="M144.5 34.1254C144.5 21.0771 134.426 10.4993 122 10.4993C109.574 10.4993 99.5 21.0771 99.5 34.1254V52.5012C99.5 65.5495 109.574 76.1273 122 76.1273C134.426 76.1273 144.5 65.5495 144.5 52.5012V34.1254Z" fill="#FEC9A3"/>
<path d="M144.5 34.1254V52.5012C144.5 57.0662 143.241 61.5334 140.875 65.3633C138.51 69.1931 135.138 72.2217 131.169 74.083C131.307 73.0205 131.376 71.9494 131.375 70.877V20.9998C131.379 17.8761 130.791 14.7828 129.644 11.9005C133.995 13.5534 137.755 16.5737 140.413 20.5503C143.071 24.527 144.498 29.2669 144.5 34.1254V34.1254Z" fill="#FEB784"/>
<path d="M99.5 36.7505V23.6249C99.5 14.9259 105.097 10.4993 112 10.4993L111.56 12.1623C109.109 21.4264 104.98 29.8451 99.5 36.7505Z" fill="#222222"/>
<path d="M144.5 36.7505V20.9998C144.5 12.3008 138.903 10.4993 132 10.4993L132.44 12.1623C134.891 21.4264 139.02 29.8451 144.5 36.7505Z" fill="#222222"/>
<path d="M144.5 20.9998H106.594C104.049 20.9992 101.61 19.9376 99.8106 18.0486C98.0115 16.1595 97.0006 13.5975 97 10.9259V10.0727C97.0002 8.24945 97.4716 6.4604 98.3641 4.89634C99.2565 3.33229 100.536 2.05189 102.067 1.19166C103.598 0.33144 105.323 -0.0763496 107.057 0.0117758C108.792 0.0999011 110.471 0.680638 111.916 1.69206C113.564 2.84569 115.366 3.73796 117.262 4.34015C119.158 4.94337 121.128 5.24965 123.109 5.2491H129.5C133.478 5.2491 137.294 6.90854 140.107 9.86237C142.92 12.8162 144.5 16.8225 144.5 20.9998V20.9998Z" fill="#222222"/>
<path d="M144.5 36.7505V55.1263C144.503 60.3531 143.839 65.5567 142.525 70.5981L139.009 84.1404C138.432 86.3626 137.175 88.3239 135.432 89.7221C133.689 91.1202 131.556 91.8778 129.362 91.8779H114.638C113.949 91.8787 113.262 91.8039 112.588 91.6548C110.785 91.2583 109.122 90.3468 107.781 89.0208C106.441 87.6949 105.475 86.006 104.991 84.1404L101.475 70.6014C100.163 65.5584 99.4992 60.354 99.5 55.1263V36.7505L103.572 50.2534C103.85 51.2151 104.345 52.092 105.016 52.8096C106.044 53.8778 107.392 54.5405 108.832 54.6858C110.272 54.831 111.715 54.45 112.919 53.607C113.95 52.8855 115.161 52.5007 116.4 52.5012H127.6C128.839 52.501 130.05 52.8858 131.081 53.607C131.081 53.607 131.947 54.1911 132 54.2206C135.431 56.1829 139.753 54.1484 140.837 50.1714L144.5 36.7505Z" fill="#222222"/>
<path d="M144.5 36.7505V55.1263C144.503 60.3531 143.839 65.5567 142.525 70.5981L139.009 84.1404C138.432 86.3626 137.175 88.3239 135.432 89.7221C133.689 91.1202 131.556 91.8778 129.362 91.8779H114.637C113.949 91.8787 113.262 91.8039 112.587 91.6548C117.969 90.872 122.898 88.0713 126.467 83.7698C130.035 79.4682 132 73.9563 132 68.2519V54.2206C135.431 56.1829 139.753 54.1484 140.837 50.1714L144.5 36.7505Z" fill="#222222"/>
<path d="M110.75 44.6258C112.821 44.6258 114.5 42.8629 114.5 40.6882C114.5 38.5134 112.821 36.7505 110.75 36.7505C108.679 36.7505 107 38.5134 107 40.6882C107 42.8629 108.679 44.6258 110.75 44.6258Z" fill="#222222"/>
<path d="M133.25 44.6258C135.321 44.6258 137 42.8629 137 40.6882C137 38.5134 135.321 36.7505 133.25 36.7505C131.179 36.7505 129.5 38.5134 129.5 40.6882C129.5 42.8629 131.179 44.6258 133.25 44.6258Z" fill="#222222"/>
<path d="M124.371 37.581L119.629 35.92L114.629 51.6707C114.504 52.0652 114.47 52.4854 114.529 52.8965C114.589 53.3077 114.741 53.6981 114.972 54.0356C115.204 54.373 115.509 54.6479 115.861 54.8375C116.214 55.0272 116.604 55.1262 117 55.1263H127V49.8761H120.469L124.371 37.581Z" fill="#F7A468"/>
<path d="M129.5 52.5012H114.5C110.522 52.5012 106.706 54.1606 103.893 57.1144C101.08 60.0683 99.5 64.0745 99.5 68.2519H107C110.315 68.2558 113.536 67.0976 116.153 64.9609C117.591 63.7328 119.377 63.0433 121.229 63.0016H122.771C124.623 63.0432 126.409 63.7328 127.847 64.9609C130.464 67.0976 133.685 68.2558 137 68.2519H144.5C144.5 64.0745 142.92 60.0683 140.107 57.1144C137.294 54.1606 133.478 52.5012 129.5 52.5012Z" fill="#222222"/>
<path d="M144.5 20.9998H131.375C131.383 15.1864 129.342 9.57551 125.644 5.24908H129.5C133.478 5.24908 137.294 6.90853 140.107 9.86236C142.92 12.8162 144.5 16.8224 144.5 20.9998V20.9998Z" fill="#222222"/>
<path d="M142 120.754L72 123.379V144.38C72 146.469 72.7902 148.472 74.1967 149.949C75.6032 151.426 77.5109 152.256 79.5 152.256H94.5L142 134.715L159.5 131.255L172 136.505V115.504L157 112.879L142 120.754Z" fill="#FEB784"/>
<path d="M172 126.004V144.38C172 146.469 171.209 148.472 169.803 149.948C168.396 151.425 166.489 152.255 164.5 152.256H149.5L131.891 145.752L123.031 142.484L102 134.717L84.5 131.255L72 136.505V115.504L87 112.879L102 120.754L126.969 122.628L136.225 123.32L172 126.004Z" fill="#FEC9A3"/>
<path d="M16.5644 175.414C18.0524 175.414 19.3004 175.618 20.3084 176.026C21.3404 176.434 22.3484 177.01 23.3324 177.754C23.6204 177.97 23.8604 178.078 24.0524 178.078C24.2924 178.078 24.4844 177.91 24.6284 177.574C24.7724 177.214 24.8804 176.662 24.9524 175.918H25.7804C25.6844 177.55 25.6364 180.454 25.6364 184.63H24.8084C24.6164 182.998 24.3284 181.678 23.9444 180.67C23.5844 179.662 22.9724 178.81 22.1084 178.114C21.5324 177.562 20.8244 177.13 19.9844 176.818C19.1444 176.506 18.2804 176.35 17.3924 176.35C15.7124 176.35 14.3084 176.926 13.1804 178.078C12.0764 179.206 11.2604 180.706 10.7324 182.578C10.2044 184.45 9.94038 186.502 9.94038 188.734C9.94038 197.038 12.2444 201.19 16.8524 201.19C17.9084 201.19 18.7604 200.95 19.4084 200.47C19.7204 200.254 19.9364 200.002 20.0564 199.714C20.2004 199.426 20.2724 199.054 20.2724 198.598V195.07C20.2724 193.942 20.1764 193.126 19.9844 192.622C19.7924 192.094 19.4444 191.734 18.9404 191.542C18.4604 191.35 17.6924 191.23 16.6364 191.182V190.462C18.1244 190.534 20.1764 190.57 22.7924 190.57C24.9284 190.57 26.5364 190.534 27.6164 190.462V191.182C27.1364 191.23 26.7884 191.326 26.5724 191.47C26.3564 191.614 26.2004 191.89 26.1044 192.298C26.0324 192.706 25.9964 193.366 25.9964 194.278V201.406H25.2764C25.2524 200.902 25.1444 200.434 24.9524 200.002C24.7844 199.57 24.5444 199.354 24.2324 199.354C23.8244 199.354 23.1764 199.606 22.2884 200.11C20.2004 201.31 18.2324 201.91 16.3844 201.91C12.2324 201.91 9.05238 200.782 6.84438 198.526C4.63638 196.246 3.53238 193.054 3.53238 188.95C3.53238 186.262 4.08438 183.898 5.18838 181.858C6.31638 179.818 7.86438 178.234 9.83238 177.106C11.8004 175.978 14.0444 175.414 16.5644 175.414ZM34.0027 201.658C32.4667 201.658 31.3147 201.262 30.5467 200.47C29.8027 199.678 29.4307 198.634 29.4307 197.338C29.4307 196.258 29.7067 195.37 30.2587 194.674C30.8347 193.954 31.5187 193.402 32.3107 193.018C33.1267 192.634 34.1587 192.226 35.4067 191.794C36.7267 191.338 37.6867 190.93 38.2867 190.57C38.9107 190.186 39.2227 189.67 39.2227 189.022V186.214C39.2227 185.206 38.9827 184.426 38.5027 183.874C38.0467 183.298 37.3267 183.01 36.3427 183.01C35.1907 183.01 34.3147 183.298 33.7147 183.874C34.3867 184.114 34.9027 184.474 35.2627 184.954C35.6467 185.434 35.8387 185.998 35.8387 186.646C35.8387 187.462 35.5627 188.11 35.0107 188.59C34.4587 189.07 33.7867 189.31 32.9947 189.31C32.1547 189.31 31.5067 189.046 31.0507 188.518C30.5947 187.99 30.3667 187.33 30.3667 186.538C30.3667 185.866 30.5227 185.302 30.8347 184.846C31.1707 184.366 31.6747 183.922 32.3467 183.514C32.9947 183.13 33.7867 182.83 34.7227 182.614C35.6827 182.398 36.7267 182.29 37.8547 182.29C39.0307 182.29 40.0507 182.41 40.9147 182.65C41.7787 182.89 42.4987 183.298 43.0747 183.874C43.6027 184.402 43.9507 185.05 44.1187 185.818C44.3107 186.586 44.4067 187.63 44.4067 188.95V198.742C44.4067 199.318 44.4547 199.726 44.5507 199.966C44.6707 200.206 44.8867 200.326 45.1987 200.326C45.5587 200.326 45.9907 200.122 46.4947 199.714L46.8547 200.326C45.7747 201.214 44.4547 201.658 42.8947 201.658C41.5747 201.658 40.6507 201.394 40.1227 200.866C39.5947 200.338 39.3187 199.63 39.2947 198.742C38.0947 200.686 36.3307 201.658 34.0027 201.658ZM36.7747 199.354C37.7107 199.354 38.5267 198.862 39.2227 197.878V190.498C38.9347 190.978 38.3227 191.506 37.3867 192.082C36.4507 192.682 35.7427 193.282 35.2627 193.882C34.7827 194.482 34.5427 195.346 34.5427 196.474C34.5427 197.458 34.7467 198.19 35.1547 198.67C35.5627 199.126 36.1027 199.354 36.7747 199.354ZM60.2675 182.29C61.3475 182.29 62.1635 182.614 62.7155 183.262C63.2675 183.91 63.5435 184.69 63.5435 185.602C63.5435 186.49 63.2795 187.222 62.7515 187.798C62.2475 188.35 61.5755 188.626 60.7355 188.626C59.9195 188.626 59.2715 188.422 58.7915 188.014C58.3115 187.582 58.0715 187.018 58.0715 186.322C58.0715 185.17 58.5995 184.234 59.6555 183.514C59.5595 183.49 59.4155 183.478 59.2235 183.478C58.9835 183.478 58.7915 183.502 58.6475 183.55C57.7355 183.694 56.9555 184.246 56.3075 185.206C55.6835 186.166 55.3715 187.15 55.3715 188.158V197.698C55.3715 198.802 55.6355 199.57 56.1635 200.002C56.7155 200.434 57.5795 200.65 58.7555 200.65V201.406C58.4195 201.406 58.1435 201.394 57.9275 201.37C55.4795 201.298 53.8475 201.262 53.0315 201.262C52.3835 201.262 50.9075 201.298 48.6035 201.37C48.4115 201.394 48.1715 201.406 47.8835 201.406V200.65C48.7475 200.65 49.3475 200.47 49.6835 200.11C50.0195 199.726 50.1875 199.042 50.1875 198.058V186.718C50.1875 185.614 50.0195 184.81 49.6835 184.306C49.3475 183.802 48.7475 183.55 47.8835 183.55V182.794C48.6515 182.866 49.3955 182.902 50.1155 182.902C52.2515 182.902 54.0035 182.734 55.3715 182.398V185.746C55.8275 184.714 56.4875 183.886 57.3515 183.262C58.2155 182.614 59.1875 182.29 60.2675 182.29ZM69.4402 201.658C67.9042 201.658 66.7522 201.262 65.9842 200.47C65.2402 199.678 64.8682 198.634 64.8682 197.338C64.8682 196.258 65.1442 195.37 65.6962 194.674C66.2722 193.954 66.9562 193.402 67.7482 193.018C68.5642 192.634 69.5962 192.226 70.8442 191.794C72.1642 191.338 73.1242 190.93 73.7242 190.57C74.3482 190.186 74.6602 189.67 74.6602 189.022V186.214C74.6602 185.206 74.4202 184.426 73.9402 183.874C73.4842 183.298 72.7642 183.01 71.7802 183.01C70.6282 183.01 69.7522 183.298 69.1522 183.874C69.8242 184.114 70.3402 184.474 70.7002 184.954C71.0842 185.434 71.2762 185.998 71.2762 186.646C71.2762 187.462 71.0002 188.11 70.4482 188.59C69.8962 189.07 69.2242 189.31 68.4322 189.31C67.5922 189.31 66.9442 189.046 66.4882 188.518C66.0322 187.99 65.8042 187.33 65.8042 186.538C65.8042 185.866 65.9602 185.302 66.2722 184.846C66.6082 184.366 67.1122 183.922 67.7842 183.514C68.4322 183.13 69.2242 182.83 70.1602 182.614C71.1202 182.398 72.1642 182.29 73.2922 182.29C74.4682 182.29 75.4882 182.41 76.3522 182.65C77.2162 182.89 77.9362 183.298 78.5122 183.874C79.0402 184.402 79.3882 185.05 79.5562 185.818C79.7482 186.586 79.8442 187.63 79.8442 188.95V198.742C79.8442 199.318 79.8922 199.726 79.9882 199.966C80.1082 200.206 80.3242 200.326 80.6362 200.326C80.9962 200.326 81.4282 200.122 81.9322 199.714L82.2922 200.326C81.2122 201.214 79.8922 201.658 78.3322 201.658C77.0122 201.658 76.0882 201.394 75.5602 200.866C75.0322 200.338 74.7562 199.63 74.7322 198.742C73.5322 200.686 71.7682 201.658 69.4402 201.658ZM72.2122 199.354C73.1482 199.354 73.9642 198.862 74.6602 197.878V190.498C74.3722 190.978 73.7602 191.506 72.8242 192.082C71.8882 192.682 71.1802 193.282 70.7002 193.882C70.2202 194.482 69.9802 195.346 69.9802 196.474C69.9802 197.458 70.1842 198.19 70.5922 198.67C71.0002 199.126 71.5402 199.354 72.2122 199.354ZM100.385 186.25C99.905 186.25 99.497 186.094 99.161 185.782C98.825 185.446 98.657 184.978 98.657 184.378C98.657 183.802 98.801 183.214 99.089 182.614C98.513 182.854 98.033 183.13 97.649 183.442C97.289 183.73 96.977 184.102 96.713 184.558C97.457 185.446 97.829 186.598 97.829 188.014C97.829 189.91 97.169 191.338 95.849 192.298C94.553 193.258 92.825 193.738 90.665 193.738H90.017C89.033 194.314 88.541 194.95 88.541 195.646C88.541 196.414 89.021 196.798 89.981 196.798H93.905C96.017 196.798 97.697 197.194 98.945 197.986C100.217 198.754 100.853 199.942 100.853 201.55C100.853 202.774 100.457 203.878 99.665 204.862C98.897 205.87 97.721 206.674 96.137 207.274C94.553 207.874 92.609 208.174 90.305 208.174C87.977 208.174 86.105 207.874 84.689 207.274C83.297 206.698 82.601 205.858 82.601 204.754C82.601 204.01 82.937 203.338 83.609 202.738C84.281 202.162 85.277 201.706 86.597 201.37L86.921 201.946C86.057 202.666 85.625 203.494 85.625 204.43C85.625 205.438 86.081 206.206 86.993 206.734C87.905 207.286 89.165 207.562 90.773 207.562C92.453 207.562 93.809 207.226 94.841 206.554C95.897 205.882 96.425 204.934 96.425 203.71C96.425 202.918 96.125 202.294 95.525 201.838C94.949 201.382 93.929 201.154 92.465 201.154H90.233C88.697 201.154 87.497 200.902 86.633 200.398C85.769 199.87 85.337 199.078 85.337 198.022C85.337 197.134 85.649 196.342 86.273 195.646C86.897 194.95 87.845 194.278 89.117 193.63C87.389 193.414 86.021 192.838 85.013 191.902C84.005 190.966 83.501 189.67 83.501 188.014C83.501 186.118 84.149 184.69 85.445 183.73C86.765 182.77 88.505 182.29 90.665 182.29C93.065 182.29 94.901 182.854 96.173 183.982C96.629 183.334 97.193 182.818 97.865 182.434C98.537 182.05 99.221 181.858 99.917 181.858C100.637 181.858 101.201 182.074 101.609 182.506C102.041 182.914 102.257 183.454 102.257 184.126C102.257 184.798 102.065 185.326 101.681 185.71C101.321 186.07 100.889 186.25 100.385 186.25ZM90.665 193.09C91.337 193.09 91.841 192.706 92.177 191.938C92.537 191.17 92.717 189.862 92.717 188.014C92.717 186.166 92.537 184.858 92.177 184.09C91.841 183.322 91.337 182.938 90.665 182.938C89.993 182.938 89.477 183.322 89.117 184.09C88.781 184.858 88.613 186.166 88.613 188.014C88.613 189.862 88.781 191.17 89.117 191.938C89.477 192.706 89.993 193.09 90.665 193.09ZM113.241 198.958C115.209 198.958 116.793 197.998 117.993 196.078L118.641 196.294C118.161 197.854 117.297 199.186 116.049 200.29C114.825 201.37 113.289 201.91 111.441 201.91C108.897 201.91 106.869 201.106 105.357 199.498C103.869 197.866 103.125 195.466 103.125 192.298C103.125 189.058 103.929 186.586 105.537 184.882C107.145 183.154 109.281 182.29 111.945 182.29C116.457 182.29 118.713 184.954 118.713 190.282H108.597C108.573 190.642 108.561 191.206 108.561 191.974C108.561 193.558 108.777 194.878 109.209 195.934C109.665 196.99 110.241 197.758 110.937 198.238C111.657 198.718 112.425 198.958 113.241 198.958ZM111.729 183.046C110.865 183.046 110.145 183.586 109.569 184.666C109.017 185.722 108.669 187.366 108.525 189.598H114.177C114.225 187.702 114.033 186.142 113.601 184.918C113.193 183.67 112.569 183.046 111.729 183.046ZM139.461 176.026C140.565 176.026 141.477 175.99 142.197 175.918V176.638C141.597 176.854 141.009 177.31 140.433 178.006C139.857 178.702 139.341 179.674 138.885 180.922L131.289 201.478C131.025 201.454 130.605 201.442 130.029 201.442C129.477 201.442 129.069 201.454 128.805 201.478L119.625 178.942C119.313 178.15 118.953 177.574 118.545 177.214C118.137 176.854 117.741 176.662 117.357 176.638V175.918C118.797 175.99 120.621 176.026 122.829 176.026C125.301 176.026 127.125 175.99 128.301 175.918V176.638C127.389 176.686 126.741 176.794 126.357 176.962C125.973 177.13 125.781 177.466 125.781 177.97C125.781 178.378 125.925 178.942 126.213 179.662L132.549 195.79L136.977 183.838C137.649 181.99 137.985 180.526 137.985 179.446C137.985 178.486 137.721 177.79 137.193 177.358C136.689 176.926 135.945 176.686 134.961 176.638V175.918C136.593 175.99 138.093 176.026 139.461 176.026ZM146.325 173.506C147.333 173.506 148.125 173.758 148.701 174.262C149.301 174.742 149.601 175.414 149.601 176.278C149.601 177.142 149.301 177.826 148.701 178.33C148.125 178.81 147.333 179.05 146.325 179.05C145.317 179.05 144.513 178.81 143.913 178.33C143.337 177.826 143.049 177.142 143.049 176.278C143.049 175.414 143.337 174.742 143.913 174.262C144.513 173.758 145.317 173.506 146.325 173.506ZM149.133 198.058C149.133 199.042 149.301 199.726 149.637 200.11C149.997 200.47 150.597 200.65 151.437 200.65V201.406C149.037 201.31 147.441 201.262 146.649 201.262C145.905 201.262 144.237 201.31 141.645 201.406V200.65C142.509 200.65 143.109 200.47 143.445 200.11C143.781 199.726 143.949 199.042 143.949 198.058V186.718C143.949 185.614 143.781 184.81 143.445 184.306C143.109 183.802 142.509 183.55 141.645 183.55V182.794C142.413 182.866 143.157 182.902 143.877 182.902C146.013 182.902 147.765 182.734 149.133 182.398V198.058ZM166.393 182.29C168.217 182.29 169.537 182.758 170.353 183.694C170.761 184.15 171.049 184.738 171.217 185.458C171.385 186.178 171.469 187.15 171.469 188.374V198.058C171.469 199.042 171.637 199.726 171.973 200.11C172.333 200.47 172.933 200.65 173.773 200.65V201.406C171.373 201.31 169.789 201.262 169.021 201.262C168.301 201.262 166.741 201.31 164.341 201.406V200.65C165.061 200.65 165.565 200.47 165.853 200.11C166.141 199.726 166.285 199.042 166.285 198.058V186.862C166.285 185.878 166.117 185.134 165.781 184.63C165.469 184.126 164.893 183.874 164.053 183.874C163.069 183.874 162.229 184.282 161.533 185.098C160.837 185.89 160.489 186.874 160.489 188.05V198.058C160.489 199.042 160.633 199.726 160.921 200.11C161.209 200.47 161.713 200.65 162.433 200.65V201.406C160.225 201.31 158.737 201.262 157.969 201.262C157.249 201.262 155.593 201.31 153.001 201.406V200.65C153.865 200.65 154.465 200.47 154.801 200.11C155.137 199.726 155.305 199.042 155.305 198.058V186.718C155.305 185.614 155.137 184.81 154.801 184.306C154.465 183.802 153.865 183.55 153.001 183.55V182.794C153.769 182.866 154.513 182.902 155.233 182.902C157.369 182.902 159.121 182.734 160.489 182.398V185.638C161.569 183.406 163.537 182.29 166.393 182.29ZM182.422 182.794H186.67V183.514H182.422V198.058C182.422 198.778 182.542 199.294 182.782 199.606C183.046 199.894 183.454 200.038 184.006 200.038C185.038 200.038 185.854 199.318 186.454 197.878L187.066 198.202C186.154 200.674 184.51 201.91 182.134 201.91C180.55 201.91 179.35 201.502 178.534 200.686C178.03 200.182 177.682 199.558 177.49 198.814C177.322 198.046 177.238 197.002 177.238 195.682V183.514H174.214V182.794H177.238V178.042C179.23 178.042 180.958 177.658 182.422 176.89V182.794ZM192.522 201.658C190.986 201.658 189.834 201.262 189.066 200.47C188.322 199.678 187.95 198.634 187.95 197.338C187.95 196.258 188.226 195.37 188.778 194.674C189.354 193.954 190.038 193.402 190.83 193.018C191.646 192.634 192.678 192.226 193.926 191.794C195.246 191.338 196.206 190.93 196.806 190.57C197.43 190.186 197.742 189.67 197.742 189.022V186.214C197.742 185.206 197.502 184.426 197.022 183.874C196.566 183.298 195.846 183.01 194.862 183.01C193.71 183.01 192.834 183.298 192.234 183.874C192.906 184.114 193.422 184.474 193.782 184.954C194.166 185.434 194.358 185.998 194.358 186.646C194.358 187.462 194.082 188.11 193.53 188.59C192.978 189.07 192.306 189.31 191.514 189.31C190.674 189.31 190.026 189.046 189.57 188.518C189.114 187.99 188.886 187.33 188.886 186.538C188.886 185.866 189.042 185.302 189.354 184.846C189.69 184.366 190.194 183.922 190.866 183.514C191.514 183.13 192.306 182.83 193.242 182.614C194.202 182.398 195.246 182.29 196.374 182.29C197.55 182.29 198.57 182.41 199.434 182.65C200.298 182.89 201.018 183.298 201.594 183.874C202.122 184.402 202.47 185.05 202.638 185.818C202.83 186.586 202.926 187.63 202.926 188.95V198.742C202.926 199.318 202.974 199.726 203.07 199.966C203.19 200.206 203.406 200.326 203.718 200.326C204.078 200.326 204.51 200.122 205.014 199.714L205.374 200.326C204.294 201.214 202.974 201.658 201.414 201.658C200.094 201.658 199.17 201.394 198.642 200.866C198.114 200.338 197.838 199.63 197.814 198.742C196.614 200.686 194.85 201.658 192.522 201.658ZM195.294 199.354C196.23 199.354 197.046 198.862 197.742 197.878V190.498C197.454 190.978 196.842 191.506 195.906 192.082C194.97 192.682 194.262 193.282 193.782 193.882C193.302 194.482 193.062 195.346 193.062 196.474C193.062 197.458 193.266 198.19 193.674 198.67C194.082 199.126 194.622 199.354 195.294 199.354ZM223.467 186.25C222.987 186.25 222.579 186.094 222.243 185.782C221.907 185.446 221.739 184.978 221.739 184.378C221.739 183.802 221.883 183.214 222.171 182.614C221.595 182.854 221.115 183.13 220.731 183.442C220.371 183.73 220.059 184.102 219.795 184.558C220.539 185.446 220.911 186.598 220.911 188.014C220.911 189.91 220.251 191.338 218.931 192.298C217.635 193.258 215.907 193.738 213.747 193.738H213.099C212.115 194.314 211.623 194.95 211.623 195.646C211.623 196.414 212.103 196.798 213.063 196.798H216.987C219.099 196.798 220.779 197.194 222.027 197.986C223.299 198.754 223.935 199.942 223.935 201.55C223.935 202.774 223.539 203.878 222.747 204.862C221.979 205.87 220.803 206.674 219.219 207.274C217.635 207.874 215.691 208.174 213.387 208.174C211.059 208.174 209.187 207.874 207.771 207.274C206.379 206.698 205.683 205.858 205.683 204.754C205.683 204.01 206.019 203.338 206.691 202.738C207.363 202.162 208.359 201.706 209.679 201.37L210.003 201.946C209.139 202.666 208.707 203.494 208.707 204.43C208.707 205.438 209.163 206.206 210.075 206.734C210.987 207.286 212.247 207.562 213.855 207.562C215.535 207.562 216.891 207.226 217.923 206.554C218.979 205.882 219.507 204.934 219.507 203.71C219.507 202.918 219.207 202.294 218.607 201.838C218.031 201.382 217.011 201.154 215.547 201.154H213.315C211.779 201.154 210.579 200.902 209.715 200.398C208.851 199.87 208.419 199.078 208.419 198.022C208.419 197.134 208.731 196.342 209.355 195.646C209.979 194.95 210.927 194.278 212.199 193.63C210.471 193.414 209.103 192.838 208.095 191.902C207.087 190.966 206.583 189.67 206.583 188.014C206.583 186.118 207.231 184.69 208.527 183.73C209.847 182.77 211.587 182.29 213.747 182.29C216.147 182.29 217.983 182.854 219.255 183.982C219.711 183.334 220.275 182.818 220.947 182.434C221.619 182.05 222.303 181.858 222.999 181.858C223.719 181.858 224.283 182.074 224.691 182.506C225.123 182.914 225.339 183.454 225.339 184.126C225.339 184.798 225.147 185.326 224.763 185.71C224.403 186.07 223.971 186.25 223.467 186.25ZM213.747 193.09C214.419 193.09 214.923 192.706 215.259 191.938C215.619 191.17 215.799 189.862 215.799 188.014C215.799 186.166 215.619 184.858 215.259 184.09C214.923 183.322 214.419 182.938 213.747 182.938C213.075 182.938 212.559 183.322 212.199 184.09C211.863 184.858 211.695 186.166 211.695 188.014C211.695 189.862 211.863 191.17 212.199 191.938C212.559 192.706 213.075 193.09 213.747 193.09ZM236.323 198.958C238.291 198.958 239.875 197.998 241.075 196.078L241.723 196.294C241.243 197.854 240.379 199.186 239.131 200.29C237.907 201.37 236.371 201.91 234.523 201.91C231.979 201.91 229.951 201.106 228.439 199.498C226.951 197.866 226.207 195.466 226.207 192.298C226.207 189.058 227.011 186.586 228.619 184.882C230.227 183.154 232.363 182.29 235.027 182.29C239.539 182.29 241.795 184.954 241.795 190.282H231.679C231.655 190.642 231.643 191.206 231.643 191.974C231.643 193.558 231.859 194.878 232.291 195.934C232.747 196.99 233.323 197.758 234.019 198.238C234.739 198.718 235.507 198.958 236.323 198.958ZM234.811 183.046C233.947 183.046 233.227 183.586 232.651 184.666C232.099 185.722 231.751 187.366 231.607 189.598H237.259C237.307 187.702 237.115 186.142 236.683 184.918C236.275 183.67 235.651 183.046 234.811 183.046Z" fill="white"/>
<rect x="61" y="225.338" width="121.97" height="5.07519" fill="white"/>
<path d="M83.2536 254.9C84.3576 255.14 85.2056 255.62 85.7976 256.34C86.4056 257.044 86.7096 257.956 86.7096 259.076C86.7096 260.516 86.1736 261.628 85.1016 262.412C84.0456 263.18 82.4776 263.564 80.3976 263.564H72.6696V246.764H79.9176C81.7896 246.764 83.2376 247.14 84.2616 247.892C85.3016 248.644 85.8216 249.708 85.8216 251.084C85.8216 252.012 85.5896 252.804 85.1256 253.46C84.6776 254.1 84.0536 254.58 83.2536 254.9ZM74.4456 248.228V254.324H79.7976C81.1576 254.324 82.2056 254.068 82.9416 253.556C83.6776 253.028 84.0456 252.268 84.0456 251.276C84.0456 250.284 83.6776 249.532 82.9416 249.02C82.2056 248.492 81.1576 248.228 79.7976 248.228H74.4456ZM80.3736 262.1C81.8776 262.1 83.0136 261.844 83.7816 261.332C84.5496 260.82 84.9336 260.02 84.9336 258.932C84.9336 256.836 83.4136 255.788 80.3736 255.788H74.4456V262.1H80.3736ZM101.299 259.076H91.9393L89.9233 263.564H88.0753L95.7553 246.764H97.5073L105.187 263.564H103.315L101.299 259.076ZM100.651 257.636L96.6193 248.612L92.5873 257.636H100.651ZM119.438 263.564L115.598 258.164C115.166 258.212 114.718 258.236 114.254 258.236H109.742V263.564H107.966V246.764H114.254C116.398 246.764 118.078 247.276 119.294 248.3C120.51 249.324 121.118 250.732 121.118 252.524C121.118 253.836 120.782 254.948 120.11 255.86C119.454 256.756 118.51 257.404 117.278 257.804L121.382 263.564H119.438ZM114.206 256.724C115.87 256.724 117.142 256.356 118.022 255.62C118.902 254.884 119.342 253.852 119.342 252.524C119.342 251.164 118.902 250.124 118.022 249.404C117.142 248.668 115.87 248.3 114.206 248.3H109.742V256.724H114.206ZM135.894 254.9C136.998 255.14 137.846 255.62 138.438 256.34C139.046 257.044 139.35 257.956 139.35 259.076C139.35 260.516 138.814 261.628 137.742 262.412C136.686 263.18 135.118 263.564 133.038 263.564H125.31V246.764H132.558C134.43 246.764 135.878 247.14 136.902 247.892C137.942 248.644 138.462 249.708 138.462 251.084C138.462 252.012 138.23 252.804 137.766 253.46C137.318 254.1 136.694 254.58 135.894 254.9ZM127.086 248.228V254.324H132.438C133.798 254.324 134.846 254.068 135.582 253.556C136.318 253.028 136.686 252.268 136.686 251.276C136.686 250.284 136.318 249.532 135.582 249.02C134.846 248.492 133.798 248.228 132.438 248.228H127.086ZM133.014 262.1C134.518 262.1 135.654 261.844 136.422 261.332C137.19 260.82 137.574 260.02 137.574 258.932C137.574 256.836 136.054 255.788 133.014 255.788H127.086V262.1H133.014ZM155.284 262.028V263.564H143.404V246.764H154.924V248.3H145.18V254.276H153.868V255.788H145.18V262.028H155.284ZM170.931 263.564L167.091 258.164C166.659 258.212 166.211 258.236 165.747 258.236H161.235V263.564H159.459V246.764H165.747C167.891 246.764 169.571 247.276 170.787 248.3C172.003 249.324 172.611 250.732 172.611 252.524C172.611 253.836 172.275 254.948 171.603 255.86C170.947 256.756 170.003 257.404 168.771 257.804L172.875 263.564H170.931ZM165.699 256.724C167.363 256.724 168.635 256.356 169.515 255.62C170.395 254.884 170.835 253.852 170.835 252.524C170.835 251.164 170.395 250.124 169.515 249.404C168.635 248.668 167.363 248.3 165.699 248.3H161.235V256.724H165.699Z" fill="white"/>
</svg>
