<svg width="245" height="270" viewBox="0 0 245 270" fill="none" xmlns="http://www.w3.org/2000/svg">
<path d="M173 163.79V203.38C173 205.469 172.21 207.472 170.803 208.949C169.397 210.426 167.489 211.256 165.5 211.256H80.5C78.5109 211.256 76.6032 210.426 75.1967 208.949C73.7902 207.472 73 205.469 73 203.38V163.79C72.9996 160.15 74.2007 156.621 76.3988 153.806C78.597 150.99 81.6563 149.062 85.0563 148.348C96.0188 146.044 110.5 143.003 110.5 143.003V119.377H135.5V143.003L149.609 145.966L160.941 148.345C164.341 149.059 167.401 150.988 169.6 153.804C171.799 156.62 173 160.149 173 163.79Z" fill="white"/>
<path d="M173 163.79V203.38C173 205.469 172.21 207.472 170.803 208.949C169.397 210.426 167.489 211.256 165.5 211.256H80.7C100.259 202.839 134.313 185.7 149.609 145.966L160.941 148.345C164.341 149.059 167.401 150.988 169.6 153.804C171.799 156.62 173 160.149 173 163.79V163.79Z" fill="white"/>
<path d="M145.5 164.004H150.5V211.256H145.5V164.004Z" fill="white"/>
<path d="M93 164.004H98V211.256H93V164.004Z" fill="white"/>
<path d="M148 95.7505H145.5V111.501H148C149.989 111.501 151.897 110.671 153.303 109.195C154.71 107.718 155.5 105.715 155.5 103.626C155.5 101.537 154.71 99.534 153.303 98.0571C151.897 96.5802 149.989 95.7505 148 95.7505Z" fill="#FEB784"/>
<path d="M98.125 95.7505H98C96.0109 95.7505 94.1032 96.5802 92.6967 98.0571C91.2902 99.534 90.5 101.537 90.5 103.626C90.5 105.715 91.2902 107.718 92.6967 109.195C94.1032 110.671 96.0109 111.501 98 111.501H100.5V95.7505H98.125Z" fill="#FEB784"/>
<path d="M145.5 93.1254C145.5 80.0771 135.426 69.4993 123 69.4993C110.574 69.4993 100.5 80.0771 100.5 93.1254V111.501C100.5 124.55 110.574 135.127 123 135.127C135.426 135.127 145.5 124.55 145.5 111.501V93.1254Z" fill="#FEC9A3"/>
<path d="M145.5 93.1254V111.501C145.5 116.066 144.241 120.533 141.875 124.363C139.51 128.193 136.138 131.222 132.169 133.083C132.307 132.021 132.376 130.949 132.375 129.877V79.9998C132.379 76.8761 131.791 73.7828 130.644 70.9005C134.995 72.5534 138.755 75.5737 141.413 79.5503C144.071 83.527 145.498 88.2669 145.5 93.1254V93.1254Z" fill="#FEB784"/>
<path d="M100.5 95.7505V82.6249C100.5 73.9259 106.097 69.4993 113 69.4993L112.56 71.1623C110.109 80.4264 105.98 88.8451 100.5 95.7505Z" fill="#222222"/>
<path d="M145.5 95.7505V79.9998C145.5 71.3008 139.903 69.4993 133 69.4993L133.44 71.1623C135.891 80.4264 140.02 88.8451 145.5 95.7505Z" fill="#222222"/>
<path d="M145.5 79.9998H107.594C105.05 79.9992 102.61 78.9376 100.811 77.0486C99.0115 75.1595 98.0006 72.5975 98 69.9259V69.0727C98.0002 67.2495 98.4716 65.4604 99.3641 63.8963C100.257 62.3323 101.536 61.0519 103.067 60.1917C104.598 59.3314 106.323 58.9237 108.057 59.0118C109.792 59.0999 111.471 59.6806 112.916 60.6921C114.564 61.8457 116.366 62.738 118.263 63.3401C120.158 63.9434 122.128 64.2497 124.109 64.2491H130.5C134.478 64.2491 138.294 65.9085 141.107 68.8624C143.92 71.8162 145.5 75.8225 145.5 79.9998V79.9998Z" fill="#222222"/>
<path d="M145.5 95.7505V114.126C145.503 119.353 144.839 124.557 143.525 129.598L140.009 143.14C139.432 145.363 138.175 147.324 136.432 148.722C134.689 150.12 132.556 150.878 130.362 150.878H115.638C114.949 150.879 114.262 150.804 113.588 150.655C111.785 150.258 110.122 149.347 108.781 148.021C107.441 146.695 106.475 145.006 105.991 143.14L102.475 129.601C101.163 124.558 100.499 119.354 100.5 114.126V95.7505L104.572 109.253C104.85 110.215 105.345 111.092 106.016 111.81C107.044 112.878 108.392 113.54 109.832 113.686C111.272 113.831 112.715 113.45 113.919 112.607C114.95 111.885 116.161 111.501 117.4 111.501H128.6C129.839 111.501 131.05 111.886 132.081 112.607C132.081 112.607 132.947 113.191 133 113.221C136.431 115.183 140.753 113.148 141.837 109.171L145.5 95.7505Z" fill="#222222"/>
<path d="M145.5 95.7505V114.126C145.503 119.353 144.839 124.557 143.525 129.598L140.009 143.14C139.432 145.363 138.175 147.324 136.432 148.722C134.689 150.12 132.556 150.878 130.362 150.878H115.637C114.949 150.879 114.262 150.804 113.587 150.655C118.969 149.872 123.898 147.071 127.467 142.77C131.035 138.468 133 132.956 133 127.252V113.221C136.431 115.183 140.753 113.148 141.837 109.171L145.5 95.7505Z" fill="#222222"/>
<path d="M111.75 103.626C113.821 103.626 115.5 101.863 115.5 99.6882C115.5 97.5134 113.821 95.7505 111.75 95.7505C109.679 95.7505 108 97.5134 108 99.6882C108 101.863 109.679 103.626 111.75 103.626Z" fill="#222222"/>
<path d="M134.25 103.626C136.321 103.626 138 101.863 138 99.6882C138 97.5134 136.321 95.7505 134.25 95.7505C132.179 95.7505 130.5 97.5134 130.5 99.6882C130.5 101.863 132.179 103.626 134.25 103.626Z" fill="#222222"/>
<path d="M125.371 96.581L120.629 94.92L115.629 110.671C115.504 111.065 115.47 111.485 115.529 111.897C115.589 112.308 115.741 112.698 115.972 113.036C116.204 113.373 116.509 113.648 116.861 113.838C117.214 114.027 117.604 114.126 118 114.126H128V108.876H121.469L125.371 96.581Z" fill="#F7A468"/>
<path d="M130.5 111.501H115.5C111.522 111.501 107.706 113.161 104.893 116.114C102.08 119.068 100.5 123.075 100.5 127.252H108C111.315 127.256 114.536 126.098 117.153 123.961C118.591 122.733 120.377 122.043 122.229 122.002H123.771C125.623 122.043 127.409 122.733 128.847 123.961C131.464 126.098 134.685 127.256 138 127.252H145.5C145.5 123.075 143.92 119.068 141.107 116.114C138.294 113.161 134.478 111.501 130.5 111.501Z" fill="#222222"/>
<path d="M145.5 79.9998H132.375C132.383 74.1864 130.342 68.5755 126.644 64.2491H130.5C134.478 64.2491 138.294 65.9085 141.107 68.8624C143.92 71.8162 145.5 75.8224 145.5 79.9998V79.9998Z" fill="#222222"/>
<path d="M143 179.754L73 182.379V203.38C73 205.469 73.7902 207.472 75.1967 208.949C76.6032 210.426 78.5109 211.256 80.5 211.256H95.5L143 193.715L160.5 190.255L173 195.505V174.504L158 171.879L143 179.754Z" fill="#FEB784"/>
<path d="M173 185.004V203.38C173 205.469 172.209 207.472 170.803 208.948C169.396 210.425 167.489 211.255 165.5 211.256H150.5L132.891 204.752L124.031 201.484L103 193.717L85.5 190.255L73 195.505V174.504L88 171.879L103 179.754L127.969 181.628L137.225 182.32L173 185.004Z" fill="#FEC9A3"/>
</svg>
