<svg width="16" height="16" viewBox="0 0 16 16" fill="none" xmlns="http://www.w3.org/2000/svg">
<path fill-rule="evenodd" clip-rule="evenodd" d="M15.9399 1.91855C15.4314 2.19776 14.8719 2.36711 14.3239 2.4788C14.5839 2.42539 14.9679 1.8536 15.1214 1.62173C15.3554 1.26906 15.5499 0.866017 15.6594 0.432016C15.6734 0.398024 15.6844 0.355535 15.6564 0.329434C15.6214 0.313045 15.5984 0.321543 15.5704 0.338539C14.9637 0.731843 14.3189 1.03159 13.6509 1.23082C13.6278 1.23957 13.6031 1.24022 13.5796 1.2327C13.5562 1.22519 13.535 1.20981 13.5184 1.18833C13.4671 1.11358 13.4111 1.04377 13.3509 0.979525C13.0736 0.689566 12.7596 0.455897 12.4209 0.287551C11.9688 0.0652467 11.4812 -0.0302013 10.9944 0.00833361C10.5216 0.0473575 10.0606 0.205499 9.64093 0.472685C9.2205 0.7395 8.84928 1.10755 8.54993 1.55435C8.23929 2.01827 8.01667 2.55959 7.89793 3.13982C7.78593 3.69825 7.79493 4.2494 7.86293 4.8133C7.87393 4.90678 7.86693 4.91953 7.79743 4.90678C5.15944 4.4315 2.97445 3.2855 1.19995 0.832025C1.12295 0.725194 1.08095 0.725194 1.01795 0.839916C0.241456 2.253 0.617955 4.52255 1.58795 5.63821C1.71745 5.78692 1.84995 5.93564 1.99345 6.071C1.94145 6.08435 1.29595 5.99937 0.720455 5.63821C0.643455 5.57933 0.604955 5.61332 0.597955 5.71894C0.592957 5.87236 0.599989 6.02602 0.618955 6.17783C0.767955 7.61033 1.58495 8.9348 2.70395 9.45195C2.83695 9.51933 2.98345 9.57942 3.12695 9.60856C2.87195 9.67654 2.60945 9.7251 1.87845 9.6559C1.78745 9.63405 1.75245 9.68929 1.78745 9.79551C2.33645 11.6135 3.52245 12.1543 4.41044 12.462C4.52944 12.4875 4.64844 12.4875 4.76744 12.5215C4.76044 12.5343 4.75344 12.5343 4.74644 12.547C4.45144 13.0921 3.43045 13.4982 2.95495 13.7003C2.08995 14.0669 1.14845 14.232 0.233956 14.1228C0.0879568 14.0967 0.0569569 14.0985 0.017457 14.1228C-0.0225429 14.1531 0.012457 14.1956 0.0594568 14.2411C0.244456 14.3899 0.433456 14.5216 0.625955 14.649C1.20392 15.0231 1.81389 15.3193 2.44495 15.5322C5.71344 16.6278 9.39493 15.823 11.8499 12.8627C13.7764 10.5379 14.4519 7.33233 14.4519 4.12194C14.4519 3.99689 14.5739 3.9277 14.6469 3.86093C15.1484 3.40386 15.5469 2.85635 15.9209 2.24511C16.0049 2.10793 15.9999 1.98592 15.9999 1.93554V1.91855C15.9999 1.86756 16.0049 1.88273 15.9399 1.91855Z" fill="white"/>
</svg>
